<svg width="32" height="32" viewBox="0 0 32 32" fill="none" xmlns="http://www.w3.org/2000/svg">
<path d="M23.2675 5.5H17.25V3.7C17.25 3.51435 17.1763 3.3363 17.045 3.20503C16.9137 3.07375 16.7357 3 16.55 3H15.45C15.2643 3 15.0863 3.07375 14.955 3.20503C14.8238 3.3363 14.75 3.51435 14.75 3.7V5.5H8.7325C7.47757 5.50066 6.27422 5.99948 5.38685 6.88685C4.49948 7.77422 4.00066 8.97757 4 10.2325V13.0525C4 16.1549 5.23241 19.1302 7.42612 21.3239C9.61983 23.5176 12.5951 24.75 15.6975 24.75H16.55C16.7357 24.75 16.9137 24.6763 17.045 24.545C17.1763 24.4137 17.25 24.2357 17.25 24.05V22.95C17.25 22.7643 17.1763 22.5863 17.045 22.455C16.9137 22.3237 16.7357 22.25 16.55 22.25H15.6975C13.2582 22.25 10.9188 21.281 9.19389 19.5561C7.46902 17.8312 6.5 15.4918 6.5 13.0525V10.2325C6.5 9.6404 6.73521 9.07256 7.15388 8.65388C7.57256 8.23521 8.1404 8 8.7325 8H23.2675C23.8596 8 24.4274 8.23521 24.8461 8.65388C25.2648 9.07256 25.5 9.6404 25.5 10.2325V13.25C25.4984 13.9359 25.4145 14.6191 25.25 15.285C25.2064 15.4566 25.2297 15.6383 25.3151 15.7934C25.4005 15.9484 25.5417 16.0652 25.71 16.12L26.76 16.4625C26.8507 16.4926 26.9466 16.5037 27.0418 16.4952C27.137 16.4867 27.2294 16.4587 27.3133 16.413C27.3972 16.3673 27.4709 16.3048 27.5296 16.2295C27.5884 16.1541 27.6311 16.0675 27.655 15.975C27.8824 15.0844 27.9982 14.1691 28 13.25V10.2325C27.9993 8.97757 27.5005 7.77422 26.6132 6.88685C25.7258 5.99948 24.5224 5.50066 23.2675 5.5Z" fill="#A0A0A0"/>
<path d="M12 16C13.1046 16 14 15.1046 14 14C14 12.8954 13.1046 12 12 12C10.8954 12 10 12.8954 10 14C10 15.1046 10.8954 16 12 16Z" fill="#A0A0A0"/>
<path d="M20 16C21.1046 16 22 15.1046 22 14C22 12.8954 21.1046 12 20 12C18.8954 12 18 12.8954 18 14C18 15.1046 18.8954 16 20 16Z" fill="#A0A0A0"/>
<path d="M27.9326 23.2L30.1976 24.0925C30.2442 24.1109 30.2842 24.143 30.3124 24.1844C30.3406 24.2259 30.3557 24.2749 30.3557 24.325C30.3557 24.3752 30.3406 24.4241 30.3124 24.4656C30.2842 24.5071 30.2442 24.5391 30.1976 24.5575L27.9326 25.45C27.5317 25.6086 27.1675 25.8476 26.8626 26.1525C26.5577 26.4574 26.3186 26.8216 26.1601 27.2225L25.2676 29.4725C25.2492 29.5191 25.2171 29.5592 25.1757 29.5874C25.1342 29.6156 25.0852 29.6306 25.0351 29.6306C24.985 29.6306 24.936 29.6156 24.8945 29.5874C24.8531 29.5592 24.821 29.5191 24.8026 29.4725L23.9101 27.2225C23.752 26.8213 23.513 26.457 23.2081 26.152C22.9032 25.8471 22.5388 25.6082 22.1376 25.45L19.8876 24.5575C19.841 24.5391 19.801 24.5071 19.7728 24.4656C19.7446 24.4241 19.7295 24.3752 19.7295 24.325C19.7295 24.2749 19.7446 24.2259 19.7728 24.1844C19.801 24.143 19.841 24.1109 19.8876 24.0925L22.1376 23.2C22.5388 23.0419 22.9032 22.8029 23.2081 22.498C23.513 22.1931 23.752 21.8287 23.9101 21.4275L24.8026 19.1775C24.821 19.1309 24.8531 19.0909 24.8945 19.0627C24.936 19.0345 24.985 19.0194 25.0351 19.0194C25.0852 19.0194 25.1342 19.0345 25.1757 19.0627C25.2171 19.0909 25.2492 19.1309 25.2676 19.1775L26.1601 21.4275C26.3186 21.8285 26.5577 22.1926 26.8626 22.4975C27.1675 22.8024 27.5317 23.0415 27.9326 23.2Z" fill="#A0A0A0"/>
</svg>
