<svg width="30" height="32" viewBox="0 0 30 32" fill="none" xmlns="http://www.w3.org/2000/svg">
<path d="M16.8816 20.75C16.8816 21.7839 16.0405 22.625 15.0066 22.625C13.9727 22.625 13.1316 21.7839 13.1316 20.75V10.3125H3.75659V20.75C3.75659 26.9533 8.80334 32 15.0066 32C21.2098 32 26.2566 26.9533 26.2566 20.75V10.3125H16.8816V20.75ZM11.2566 12.1875V15.9375H5.63159V12.1875H11.2566ZM24.3816 12.1875V15.9375H18.7566V12.1875H24.3816ZM18.7566 20.75V17.8125H24.3816V20.75C24.3816 25.9194 20.176 30.125 15.0066 30.125C9.83722 30.125 5.63159 25.9194 5.63159 20.75V17.8125H11.2566V20.75C11.2566 22.8177 12.9388 24.5 15.0066 24.5C17.0743 24.5 18.7566 22.8177 18.7566 20.75Z" fill="#A0A0A0"/>
<path d="M15 8.4375C17.3263 8.4375 19.2188 6.545 19.2188 4.21875C19.2188 1.8925 17.3263 0 15 0C12.6737 0 10.7812 1.8925 10.7812 4.21875C10.7812 6.545 12.6737 8.4375 15 8.4375ZM15 1.875C16.2924 1.875 17.3438 2.92637 17.3438 4.21875C17.3438 5.51113 16.2924 6.5625 15 6.5625C13.7076 6.5625 12.6562 5.51113 12.6562 4.21875C12.6562 2.92637 13.7076 1.875 15 1.875Z" fill="#A0A0A0"/>
<path d="M25.3125 0C22.9862 0 21.0938 1.8925 21.0938 4.21875C21.0938 6.545 22.9862 8.4375 25.3125 8.4375C27.6388 8.4375 29.5312 6.545 29.5312 4.21875C29.5312 1.8925 27.6388 0 25.3125 0ZM25.3125 6.5625C24.0201 6.5625 22.9688 5.51113 22.9688 4.21875C22.9688 2.92637 24.0201 1.875 25.3125 1.875C26.6049 1.875 27.6562 2.92637 27.6562 4.21875C27.6562 5.51113 26.6049 6.5625 25.3125 6.5625Z" fill="#A0A0A0"/>
<path d="M8.90625 4.21875C8.90625 1.8925 7.01375 0 4.6875 0C2.36125 0 0.46875 1.8925 0.46875 4.21875C0.46875 6.545 2.36125 8.4375 4.6875 8.4375C7.01375 8.4375 8.90625 6.545 8.90625 4.21875ZM2.34375 4.21875C2.34375 2.92637 3.39512 1.875 4.6875 1.875C5.97988 1.875 7.03125 2.92637 7.03125 4.21875C7.03125 5.51113 5.97988 6.5625 4.6875 6.5625C3.39512 6.5625 2.34375 5.51113 2.34375 4.21875Z" fill="#A0A0A0"/>
</svg>
