<svg width="20" height="20" viewBox="0 0 20 20" fill="none" xmlns="http://www.w3.org/2000/svg">
<path d="M7.07313 9.57582C6.83882 9.81013 6.83882 10.19 7.07313 10.4243C7.30745 10.6587 7.68735 10.6587 7.92166 10.4243L7.4974 10.0001L7.07313 9.57582ZM9.17166 9.17435C9.40597 8.94003 9.40597 8.56013 9.17166 8.32582C8.93735 8.0915 8.55745 8.0915 8.32313 8.32582L8.7474 8.75008L9.17166 9.17435ZM6.33073 11.5001L5.85073 11.8601V11.8601L6.33073 11.5001ZM7.33073 12.8334L7.81073 12.4734L7.33073 12.8334ZM12.6641 12.8334L12.1841 12.4734L12.6641 12.8334ZM13.6641 11.5001L13.1841 11.1401V11.1401L13.6641 11.5001ZM12.4974 7.08341H11.8974C11.8974 7.90264 11.2333 8.56675 10.4141 8.56675V9.16675V9.76675C11.896 9.76675 13.0974 8.56538 13.0974 7.08341H12.4974ZM10.4141 9.16675V8.56675C9.59484 8.56675 8.93073 7.90264 8.93073 7.08341H8.33073H7.73073C7.73073 8.56538 8.9321 9.76675 10.4141 9.76675V9.16675ZM8.33073 7.08341H8.93073C8.93073 6.26419 9.59484 5.60008 10.4141 5.60008V5.00008V4.40008C8.9321 4.40008 7.73073 5.60145 7.73073 7.08341H8.33073ZM10.4141 5.00008V5.60008C11.2333 5.60008 11.8974 6.26419 11.8974 7.08341H12.4974H13.0974C13.0974 5.60145 11.896 4.40008 10.4141 4.40008V5.00008ZM7.4974 10.0001L7.92166 10.4243L9.17166 9.17435L8.7474 8.75008L8.32313 8.32582L7.07313 9.57582L7.4974 10.0001ZM18.3307 13.3334H17.7307V15.8334H18.3307H18.9307V13.3334H18.3307ZM15.8307 18.3334V17.7334H4.16406V18.3334V18.9334H15.8307V18.3334ZM1.66406 15.8334H2.26406V13.3334H1.66406H1.06406V15.8334H1.66406ZM4.16406 10.8334V11.4334H4.9974V10.8334V10.2334H4.16406V10.8334ZM6.33073 11.5001L5.85073 11.8601L6.85073 13.1934L7.33073 12.8334L7.81073 12.4734L6.81073 11.1401L6.33073 11.5001ZM14.9974 10.8334V11.4334H15.8307V10.8334V10.2334H14.9974V10.8334ZM12.6641 12.8334L13.1441 13.1934L14.1441 11.8601L13.6641 11.5001L13.1841 11.1401L12.1841 12.4734L12.6641 12.8334ZM9.9974 14.1667V14.7667C11.2354 14.7667 12.4012 14.1839 13.1441 13.1934L12.6641 12.8334L12.1841 12.4734C11.6679 13.1617 10.8577 13.5667 9.9974 13.5667V14.1667ZM14.9974 10.8334V10.2334C14.2839 10.2334 13.6121 10.5693 13.1841 11.1401L13.6641 11.5001L14.1441 11.8601C14.3455 11.5915 14.6617 11.4334 14.9974 11.4334V10.8334ZM7.33073 12.8334L6.85073 13.1934C7.59356 14.1839 8.75935 14.7667 9.9974 14.7667V14.1667V13.5667C9.13706 13.5667 8.32693 13.1617 7.81073 12.4734L7.33073 12.8334ZM4.9974 10.8334V11.4334C5.33314 11.4334 5.64928 11.5915 5.85073 11.8601L6.33073 11.5001L6.81073 11.1401C6.38266 10.5693 5.71085 10.2334 4.9974 10.2334V10.8334ZM4.16406 18.3334V17.7334C3.11472 17.7334 2.26406 16.8828 2.26406 15.8334H1.66406H1.06406C1.06406 17.5455 2.45198 18.9334 4.16406 18.9334V18.3334ZM18.3307 15.8334H17.7307C17.7307 16.8828 16.8801 17.7334 15.8307 17.7334V18.3334V18.9334C17.5428 18.9334 18.9307 17.5455 18.9307 15.8334H18.3307ZM18.3307 13.3334H18.9307C18.9307 11.6213 17.5428 10.2334 15.8307 10.2334V10.8334V11.4334C16.8801 11.4334 17.7307 12.2841 17.7307 13.3334H18.3307ZM1.66406 13.3334H2.26406C2.26406 12.2841 3.11472 11.4334 4.16406 11.4334V10.8334V10.2334C2.45198 10.2334 1.06406 11.6213 1.06406 13.3334H1.66406ZM16.6641 10.8334H17.2641V5.00008H16.6641H16.0641V10.8334H16.6641ZM13.3307 1.66675V1.06675H6.66406V1.66675V2.26675H13.3307V1.66675ZM3.33073 5.00008H2.73073V10.8334H3.33073H3.93073V5.00008H3.33073ZM6.66406 1.66675V1.06675C4.49174 1.06675 2.73073 2.82776 2.73073 5.00008H3.33073H3.93073C3.93073 3.4905 5.15448 2.26675 6.66406 2.26675V1.66675ZM16.6641 5.00008H17.2641C17.2641 2.82776 15.503 1.06675 13.3307 1.06675V1.66675V2.26675C14.8403 2.26675 16.0641 3.4905 16.0641 5.00008H16.6641Z" fill="#A0A0A0"/>
</svg>
