<svg width="20" height="20" viewBox="0 0 20 20" fill="none" xmlns="http://www.w3.org/2000/svg">
<path d="M5.83073 5.83333V4.16667C5.83073 3.24619 6.57692 2.5 7.4974 2.5H16.6641C17.5845 2.5 18.3307 3.24619 18.3307 4.16667V11.6667C18.3307 12.5871 17.5845 13.3333 16.6641 13.3333H12.4974M9.16406 6.25H14.9974M11.6641 9.58333H14.9974M4.65222 13.8215C5.30309 14.4724 6.35837 14.4724 7.00924 13.8215C7.3218 13.5089 7.74572 13.3333 8.18775 13.3333H8.33073C9.2512 13.3333 9.9974 14.0795 9.9974 15V15.8333C9.9974 16.7538 9.2512 17.5 8.33073 17.5H3.33073C2.41025 17.5 1.66406 16.7538 1.66406 15.8333V15C1.66406 14.0795 2.41025 13.3333 3.33073 13.3333H3.47371C3.91573 13.3333 4.33966 13.5089 4.65222 13.8215ZM7.4974 10C7.4974 10.9205 6.7512 11.6667 5.83073 11.6667C4.91025 11.6667 4.16406 10.9205 4.16406 10C4.16406 9.07953 4.91025 8.33333 5.83073 8.33333C6.7512 8.33333 7.4974 9.07953 7.4974 10Z" stroke="#A0A0A0" stroke-width="1.2" stroke-linecap="round"/>
</svg>
