<svg width="20" height="20" viewBox="0 0 20 20" fill="none" xmlns="http://www.w3.org/2000/svg">
<path d="M7.5 16.6667V8.33341C7.5 7.41294 8.24619 6.66675 9.16667 6.66675H10.8333C11.7538 6.66675 12.5 7.41294 12.5 8.33341V16.6667M7.5 16.6667C7.5 17.5872 8.24619 18.3334 9.16667 18.3334H10.8333C11.7538 18.3334 12.5 17.5872 12.5 16.6667M7.5 16.6667V11.6667C7.5 10.7463 6.75381 10.0001 5.83333 10.0001H4.16667C3.24619 10.0001 2.5 10.7463 2.5 11.6667V16.6667C2.5 17.5872 3.24619 18.3334 4.16667 18.3334H5.83333C6.75381 18.3334 7.5 17.5872 7.5 16.6667ZM12.5 16.6667V13.3334C12.5 12.4129 13.2462 11.6667 14.1667 11.6667H15.8333C16.7538 11.6667 17.5 12.4129 17.5 13.3334V16.6667C17.5 17.5872 16.7538 18.3334 15.8333 18.3334H14.1667C13.2462 18.3334 12.5 17.5872 12.5 16.6667Z" stroke="white" stroke-width="1.2"/>
<path d="M9.81337 1.00216C9.87324 0.817896 10.1339 0.817896 10.1938 1.00216L10.5792 2.18838C10.606 2.27079 10.6828 2.32658 10.7694 2.32658H12.0167C12.2104 2.32658 12.291 2.5745 12.1343 2.68838L11.1252 3.42151C11.0551 3.47244 11.0258 3.56271 11.0525 3.64511L11.438 4.83134C11.4978 5.0156 11.2869 5.16882 11.1302 5.05494L10.1211 4.32182C10.051 4.27089 9.95612 4.27089 9.88602 4.32182L8.87696 5.05494C8.72022 5.16882 8.50932 5.0156 8.56919 4.83134L8.95462 3.64511C8.9814 3.56271 8.95206 3.47244 8.88197 3.42151L7.8729 2.68838C7.71616 2.5745 7.79672 2.32658 7.99046 2.32658H9.23773C9.32438 2.32658 9.40117 2.27079 9.42794 2.18838L9.81337 1.00216Z" fill="white"/>
</svg>
